<svg xmlns="http://www.w3.org/2000/svg" width="355.001" height="178.001" viewBox="0 0 355.001 178.001"><defs><style>.a{fill:#fc0019;}.b{fill:#fff;font-size:14px;font-family:HiraKakuProN-W6, Hiragino Kaku Gothic ProN;}</style></defs><g transform="translate(0)"><path class="a" d="M172,34h12l-6,6ZM0,34V0H355V34Z"/><path class="a" d="M172,34h12l-6,6Zm183,0H0V0H172l6,6,6-6H355V34h0Z" transform="translate(0 36)"/><path class="a" d="M172,34h12l-6,6Zm183,0H0V0H172l6,6,6-6H355V34h0Z" transform="translate(0 108)"/><path class="a" d="M172,34h12l-6,6Zm183,0H0V0H172l6,6,6-6H355V34h0Z" transform="translate(0 72)"/><path class="a" d="M355,34H0V0H172l6,6,6-6H355V34Z" transform="translate(0 144)"/><text class="b" transform="translate(177 22)"><tspan x="-62.79" y="0">ご本人さまについて</tspan></text><text class="b" transform="translate(177 58)"><tspan x="-55.79" y="0">ご勤務先について</tspan></text><text class="b" transform="translate(177 130)"><tspan x="-14" y="0">確認</tspan></text><text class="b" transform="translate(177 94)"><tspan x="-69.79" y="0">お申込み内容について</tspan></text><text class="b" transform="translate(177 166)"><tspan x="-14" y="0">完了</tspan></text></g></svg>