<svg xmlns="http://www.w3.org/2000/svg" width="960" height="40" viewBox="0 0 960 40"><defs><style>.a{fill:#fc0019;}.b{fill:#fff;font-size:13px;font-family:HiraKakuProN-W6, Hiragino Kaku Gothic ProN;}</style></defs><g transform="translate(-370 -222)"><path class="a" d="M0,40V0H189.109V16.4L194,20l-4.891,3.6V40Z" transform="translate(370 222)"/><path class="a" d="M189.11,40H0V24.8L6.522,20,0,15.2V0H189.11V16.4L194,20l-4.89,3.6V40h0Z" transform="translate(563 222)"/><path class="a" d="M189.11,40H0V24.8L6.522,20,0,15.2V0H189.11V16.4L194,20l-4.89,3.6V40h0Z" transform="translate(756 222)"/><path class="a" d="M189.11,40H0V24.8L6.522,20,0,15.2V0H189.11V16.4L194,20l-4.89,3.6V40h0Z" transform="translate(948 222)"/><path class="a" d="M189,40H0V24.8L6.518,20,0,15.2V0H189V40Z" transform="translate(1141 222)"/><text class="b" transform="translate(467 247)"><tspan x="-58.305" y="0">ご本人さまについて</tspan></text><text class="b" transform="translate(660 247)"><tspan x="-51.805" y="0">ご勤務先について</tspan></text><text class="b" transform="translate(853 247)"><tspan x="-64.805" y="0">お申込み内容について</tspan></text><text class="b" transform="translate(1043 247)"><tspan x="-13" y="0">確認</tspan></text><text class="b" transform="translate(1236 247)"><tspan x="-13" y="0">完了</tspan></text></g></svg>